<?xml version="1.0" encoding="UTF-8" standalone="no"?>
<!-- Created with Inkscape (http://www.inkscape.org/) -->

<svg
   width="210mm"
   height="297mm"
   viewBox="0 0 210 297"
   version="1.1"
   id="svg1"
   xml:space="preserve"
   inkscape:version="1.4 (e7c3feb100, 2024-10-09)"
   sodipodi:docname="mouse_inkscape_correct.svg"
   xmlns:inkscape="http://www.inkscape.org/namespaces/inkscape"
   xmlns:sodipodi="http://sodipodi.sourceforge.net/DTD/sodipodi-0.dtd"
   xmlns:xlink="http://www.w3.org/1999/xlink"
   xmlns="http://www.w3.org/2000/svg"
   xmlns:svg="http://www.w3.org/2000/svg"><sodipodi:namedview
     id="namedview1"
     pagecolor="#ffffff"
     bordercolor="#000000"
     borderopacity="0.25"
     inkscape:showpageshadow="2"
     inkscape:pageopacity="0.0"
     inkscape:pagecheckerboard="0"
     inkscape:deskcolor="#d1d1d1"
     inkscape:document-units="mm"
     inkscape:zoom="14.738874"
     inkscape:cx="-8.0738869"
     inkscape:cy="51.428624"
     inkscape:window-width="1920"
     inkscape:window-height="1014"
     inkscape:window-x="0"
     inkscape:window-y="32"
     inkscape:window-maximized="1"
     inkscape:current-layer="layer1"
     showguides="false"
     inkscape:lockguides="false" /><defs
     id="defs1" /><g
     inkscape:label="Слой 1"
     inkscape:groupmode="layer"
     id="layer1"><path
       style="opacity:1;fill:none;stroke:#000000;stroke-width:0.05;stroke-dasharray:none"
       d="m -9.5084635,10.053336 v 0.999999 h -0.5001935 l 1.0001935,3.5 0.5,-3.5 h -0.5 V 0.55333497 h -0.5 V 9.0533349"
       id="path1"
       sodipodi:nodetypes="ccccccccc"
       inkscape:label="копьё" /><path
       style="opacity:1;fill:none;stroke:#000000;stroke-width:0.05;stroke-dasharray:none"
       d="m -5.0084635,1.053335 -2,-0.50000003 -1,0.50000003 -0.5425,0.4999999 0.5425,1 1,-0.5 h 2 z"
       id="path2"
       inkscape:label="левая_нога"
       sodipodi:nodetypes="cccccccc" /><path
       style="opacity:1;fill:none;stroke:#000000;stroke-width:0.05;stroke-dasharray:none"
       d="m -5.039079,2.0410362 0.019235,4.0651697"
       id="path3"
       inkscape:label="меж_ног" /><path
       style="opacity:1;fill:none;stroke:#000000;stroke-width:0.05;stroke-dasharray:none"
       d="m -5.3274635,6.4075669 0.319,-0.354232 0.3092175,0.3285845"
       id="path4"
       inkscape:label="промежность"
       sodipodi:nodetypes="ccc" /><path
       style="opacity:1;fill:none;stroke:#000000;stroke-width:0.05;stroke-dasharray:none"
       d="m -4.5084635,2.05386 -1,-5.251e-4 -0.5,3 h 2 z"
       id="path6"
       inkscape:label="ноги"
       sodipodi:nodetypes="ccccc" /><path
       style="opacity:1;fill:none;stroke:#000000;stroke-width:0.05;stroke-dasharray:none"
       d="M -5.5969178,2.5533349 H -4.436357"
       id="path7"
       inkscape:label="полоска_на_штанах_1"
       sodipodi:nodetypes="cc" /><path
       style="opacity:1;fill:none;stroke:#000000;stroke-width:0.05;stroke-dasharray:none"
       d="m -5.6802732,3.0533349 h 1.3016237"
       id="path8"
       inkscape:label="полоска_на_штанах_2"
       sodipodi:nodetypes="cc" /><path
       style="opacity:1;fill:none;stroke:#000000;stroke-width:0.05;stroke-dasharray:none"
       d="M -5.7764521,3.556541 -4.28247,3.550131"
       id="path9"
       inkscape:label="полоска_на_штанах_3"
       sodipodi:nodetypes="cc" /><path
       style="opacity:1;fill:none;stroke:#000000;stroke-width:0.05;stroke-dasharray:none"
       d="M -5.8469834,4.0533349 H -4.192703"
       id="path10"
       inkscape:label="полоска_на_штанах_4"
       sodipodi:nodetypes="cc" /><path
       style="opacity:1;fill:none;stroke:#000000;stroke-width:0.05;stroke-dasharray:none"
       d="M -4.522646,2.038462 -5.0333,2.035082 -5.0299,1.1219931 Z"
       id="path11"
       sodipodi:nodetypes="cccc"
       inkscape:label="правая_нога" /><path
       style="opacity:1;fill:none;stroke:#000000;stroke-width:0.05;stroke-dasharray:none"
       d="m -5.0084635,1.053335 2.4999999,4.9999999 2.00000016,-4 -2.00000016,-1.49999993 z"
       id="path12"
       inkscape:label="сыр"
       sodipodi:nodetypes="ccccc" /><path
       style="opacity:1;fill:none;stroke:#000000;stroke-width:0.05;stroke-dasharray:none"
       d="M -2.5084636,0.55333497 V 6.0533349"
       id="path13"
       sodipodi:nodetypes="cc"
       inkscape:label="угол_сыра" /><path
       style="opacity:1;fill:none;stroke:#000000;stroke-width:0.05;stroke-dasharray:none"
       d="M -3.5084635,0.73298512 V 1.053335 h 0.4999999 V 0.63533497"
       id="path14"
       inkscape:label="квадрат_1"
       sodipodi:nodetypes="cccc" /><path
       style="opacity:1;fill:none;stroke:#000000;stroke-width:0.05;stroke-dasharray:none"
       d="m -3.5084635,1.5533349 -0.5,0.5 0.4561164,0.5 0.5438835,-0.5 z"
       id="path15"
       inkscape:label="квадрат_2"
       sodipodi:nodetypes="ccccc" /><path
       style="opacity:1;fill:none;stroke:#000000;stroke-width:0.05;stroke-dasharray:none"
       d="m -2.5225741,3.0705697 -0.5097375,-0.010297 -0.00515,0.4736954 0.5200365,0.015446"
       id="path16"
       inkscape:label="квадрат_3" /><path
       style="opacity:1;fill:none;stroke:#000000;stroke-width:0.05;stroke-dasharray:none"
       d="m -3.5317516,4.0334074 0.523288,0.00515 v 0.5147785 l -0.2401004,1.082e-4"
       id="path17"
       inkscape:label="квадрат_4"
       sodipodi:nodetypes="cccc" /><path
       style="opacity:1;fill:none;stroke:#000000;stroke-width:0.05;stroke-dasharray:none"
       d="m -2.5174251,1.041917 0.5089615,0.011418 v 0.4999999 h -0.5"
       id="path18"
       inkscape:label="квадрат_5"
       sodipodi:nodetypes="cccc" /><path
       style="opacity:1;fill:none;stroke:#000000;stroke-width:0.05;stroke-dasharray:none"
       d="m -1.5084636,2.5533349 v -0.5 h -0.5 v 0.5 z"
       id="path19"
       inkscape:label="квадрат_6"
       sodipodi:nodetypes="ccccc" /><path
       style="opacity:1;fill:none;stroke:#000000;stroke-width:0.05;stroke-dasharray:none"
       d="m -1.564885,4.0540028 -0.4435786,-6.679e-4 v 0.5 h 0.2118806"
       id="path20"
       inkscape:label="квадрат_7"
       sodipodi:nodetypes="cccc" /><path
       style="opacity:1;fill:none;stroke:#000000;stroke-width:0.05;stroke-dasharray:none"
       d="m -6.5084635,7.5533349 v -1 l 0.5,-1.5 h 2 l 0.5,1.5 v 1 l -1,-0.5 h -1 z"
       id="path22"
       sodipodi:nodetypes="ccccccccc"
       inkscape:label="штаны" /><path
       style="opacity:1;fill:none;stroke:#000000;stroke-width:0.05;stroke-dasharray:none"
       d="m -6.5084636,7.5533349 0.5073949,1 -0.00739,0.5 0.5,0.5 h 1 l 0.5,-0.5 v -0.5 l 0.5,-1"
       id="path23"
       inkscape:label="туловище"
       sodipodi:nodetypes="cccccccc" /><path
       style="opacity:1;fill:none;stroke:#000000;stroke-width:0.05;stroke-dasharray:none"
       d="m -6.0010687,8.6036219 -0.0074,-1.300287 0.5000003,-0.25 v 2.5"
       id="path24"
       inkscape:label="левая_лямка"
       sodipodi:nodetypes="cccc" /><path
       style="opacity:1;fill:none;stroke:#000000;stroke-width:0.05;stroke-dasharray:none"
       d="m -4.5084635,9.5533349 5e-7,-2.5"
       id="path25"
       inkscape:label="правая_лямка_внутри"
       sodipodi:nodetypes="cc" /><path
       style="opacity:1;fill:none;stroke:#000000;stroke-width:0.05;stroke-dasharray:none"
       d="m -4.0084635,7.3033349 v 1.25"
       id="path26"
       inkscape:label="правая_лямка_снаружи"
       sodipodi:nodetypes="cc" /><path
       style="fill:none;stroke:#000000;stroke-width:0.05"
       d="m -9.0084635,8.5533349 h 0.5 l 2,-0.5 h 0.2536973"
       id="path5"
       sodipodi:nodetypes="cccc"
       inkscape:label="левая_рука_низ" /><path
       style="fill:none;stroke:#000000;stroke-width:0.05"
       d="m -9.0084635,10.053336 h 0.5 V 9.5533349 l 2,-1 0.5,0.5"
       id="path21"
       sodipodi:nodetypes="ccccc"
       inkscape:label="левая_рука_верх" /><path
       style="fill:none;stroke:#000000;stroke-width:0.05"
       d="m -9.5084635,8.5533349 -0.4999995,0.5 v 1.0000011 l 0.4999995,0.499999"
       id="path33"
       sodipodi:nodetypes="cccc"
       inkscape:label="ладонь" /><path
       style="fill:none;stroke:#000000;stroke-width:0.05"
       d="m -10.008463,9.5533349 0.4999995,-0.5 0.5,0.5 -0.5,0.5000011 h -0.4999995"
       id="path34"
       sodipodi:nodetypes="ccccc"
       inkscape:label="палец" /><path
       style="fill:none;stroke:#000000;stroke-width:0.05"
       d="m -5.5084635,8.0533349 h 1"
       id="path35"
       sodipodi:nodetypes="cc"
       inkscape:label="солнечное_сплетение" /><path
       style="fill:none;stroke:#000000;stroke-width:0.05"
       d="m -5.1334636,7.8033349 h 0.2500001"
       id="path36"
       sodipodi:nodetypes="cc"
       inkscape:label="пупок" /><path
       style="fill:none;stroke:#000000;stroke-width:0.05"
       d="m -4.0084635,9.0533349 0.5,-0.5 0.4999999,-1 -0.4999999,-1"
       id="path37"
       sodipodi:nodetypes="cccc"
       inkscape:label="правая_рука" /><path
       style="fill:none;stroke:#000000;stroke-width:0.05"
       d="m -5.5084635,9.5533349 -1.5,0.5000011 -0.5,0.999999 0.5,1.5 1.5,1 h 1 l 1.4999999,-1 0.5,-1.5 -0.5,-0.999999 -1.4999999,-0.5000011"
       id="path38"
       sodipodi:nodetypes="cccccccccc"
       inkscape:label="голова" /><path
       style="fill:none;stroke:#000000;stroke-width:0.05"
       d="m -8.5084635,10.553335 2,0.5 h -1.5"
       id="path40"
       sodipodi:nodetypes="ccc"
       inkscape:label="левый_большой_ус" /><path
       style="fill:none;stroke:#000000;stroke-width:0.05"
       d="m -1.5024001,10.577588 -1.9999999,0.5 h 1.4999999"
       id="path40-2"
       sodipodi:nodetypes="ccc"
       inkscape:label="правый_большой_ус" /><path
       style="fill:none;stroke:#000000;stroke-width:0.05"
       d="m -6.5084635,11.553335 -2,0.5"
       id="path41"
       sodipodi:nodetypes="cc"
       inkscape:label="левый_малый_ус" /><path
       style="fill:none;stroke:#000000;stroke-width:0.05"
       d="m -3.5084635,11.553335 1.9999999,0.5"
       id="path41-7"
       sodipodi:nodetypes="cc"
       inkscape:label="правый_малый_ус" /><path
       style="fill:none;stroke:#000000;stroke-width:0.05"
       d="m -3.0084636,12.053335 -1.4999999,-1 h -1 l -1.5,1"
       id="path43"
       sodipodi:nodetypes="cccc"
       inkscape:label="верхняя_губа" /><path
       style="fill:none;stroke:#000000;stroke-width:0.05"
       d="m -6.0386207,11.406773 0.030157,-0.853438 0.5,-0.499999 h 1 l 0.5,0.564081 0.0089,0.775185"
       id="path44"
       sodipodi:nodetypes="cccccc"
       inkscape:label="нижняя_губа" /><path
       style="fill:none;stroke:#000000;stroke-width:0.05"
       d="m -5.0084635,10.053336 v 0.999999"
       id="path46"
       inkscape:label="центральная_щель" /><path
       style="fill:none;stroke:#000000;stroke-width:0.05"
       d="m -5.5084635,10.053336 v 0.999999"
       id="path45"
       inkscape:label="левая_щель" /><path
       style="fill:none;stroke:#000000;stroke-width:0.05"
       d="m -4.5084635,10.053336 v 0.999999"
       id="path47"
       inkscape:label="правая_щель" /><path
       style="fill:#000000;stroke:#000000;stroke-width:0.05"
       d="m -4.5084635,12.053335 h -1 l 0.5,-0.5 z"
       id="path48"
       inkscape:label="нос"
       sodipodi:nodetypes="cccc" /><path
       style="fill:#000000;stroke:#000000;stroke-width:0.05"
       d="m -7.0084635,12.553335 1.5,-0.5"
       id="path49"
       inkscape:label="левый_мешок" /><path
       style="fill:#000000;stroke:#000000;stroke-width:0.05"
       d="m -3.0084636,12.553335 -1.4999999,-0.5"
       id="path50"
       inkscape:label="правый_мешок" /><path
       style="fill:none;stroke:#000000;stroke-width:0.05"
       d="m -4.015786,12.208162 0.00732,0.345173 -0.5,0.5 -0.5,-0.5 -0.5,0.5 -0.5,-0.490547 v -0.345173"
       id="path51-6"
       sodipodi:nodetypes="ccccccc"
       inkscape:label="глаза" /><path
       style="fill:none;stroke:#000000;stroke-width:0.05"
       d="m -5.0084635,12.553335 v -0.5"
       id="path51"
       inkscape:label="меж_глаз" /><path
       style="fill:none;stroke:#000000;stroke-width:0.05"
       d="m -5.5084635,12.053335 v 0.5"
       id="path52"
       sodipodi:nodetypes="cc"
       inkscape:label="левый_зрачок" /><path
       style="fill:none;stroke:#000000;stroke-width:0.05"
       d="m -4.5084635,12.053335 v 0.5"
       id="path52-6"
       sodipodi:nodetypes="cc"
       inkscape:label="правый_зрачок" /><path
       style="fill:none;stroke:#000000;stroke-width:0.05"
       d="m -5.5084635,13.553335 -0.5,1 h -2 l -0.5,-2 1.354,-0.5 0.146,0.5 -1,0.5 0.5,1 h 1 l 0.5,-0.8355"
       id="path53"
       sodipodi:nodetypes="cccccccccc"
       inkscape:label="левое_ухо" /><path
       style="fill:none;stroke:#000000;stroke-width:0.05"
       d="m -4.5084635,13.553335 0.5,1 h 1.9999999 l 0.5,-2 -1.3566389,-0.467263 -0.1433611,0.467263 1,0.5 -0.5,1 h -0.9999999 l -0.502639,-0.802763"
       id="path53-9"
       sodipodi:nodetypes="cccccccccc"
       inkscape:label="правое_ухо" /></g></svg>
