<?xml version="1.0" encoding="UTF-8" standalone="no"?>
<!-- Created with Inkscape (http://www.inkscape.org/) -->

<svg
   width="210mm"
   height="297mm"
   viewBox="0 0 210 297"
   version="1.1"
   id="svg1"
   xml:space="preserve"
   xmlns="http://www.w3.org/2000/svg"
   xmlns:svg="http://www.w3.org/2000/svg"><defs
     id="defs1" /><g
     id="layer1"><path
       style="opacity:1;fill:none;stroke:#000000;stroke-width:0.05;stroke-dasharray:none"
       d="m -9.5084635,10.053336 v 0.999999 h -0.5001935 l 1.0001935,3.5 0.5,-3.5 h -0.5 V 0.55333497 h -0.5 V 9.0533349"
       id="path1" /><path
       style="opacity:1;fill:none;stroke:#000000;stroke-width:0.05;stroke-dasharray:none"
       d="m -5.0084635,1.053335 -2,-0.50000003 -1,0.50000003 -0.5425,0.4999999 0.5425,1 1,-0.5 h 2 z"
       id="path2" /><path
       style="opacity:1;fill:none;stroke:#000000;stroke-width:0.05;stroke-dasharray:none"
       d="m -5.039079,2.0410362 0.019235,4.0651697"
       id="path3" /><path
       style="opacity:1;fill:none;stroke:#000000;stroke-width:0.05;stroke-dasharray:none"
       d="m -5.3274635,6.4075669 0.319,-0.354232 0.3092175,0.3285845"
       id="path4" /><path
       style="opacity:1;fill:none;stroke:#000000;stroke-width:0.05;stroke-dasharray:none"
       d="m -4.5084635,2.05386 -1,-5.251e-4 -0.5,3 h 2 z"
       id="path6" /><path
       style="opacity:1;fill:none;stroke:#000000;stroke-width:0.05;stroke-dasharray:none"
       d="M -5.5969178,2.5533349 H -4.436357"
       id="path7" /><path
       style="opacity:1;fill:none;stroke:#000000;stroke-width:0.05;stroke-dasharray:none"
       d="m -5.6802732,3.0533349 h 1.3016237"
       id="path8" /><path
       style="opacity:1;fill:none;stroke:#000000;stroke-width:0.05;stroke-dasharray:none"
       d="M -5.7764521,3.556541 -4.28247,3.550131"
       id="path9" /><path
       style="opacity:1;fill:none;stroke:#000000;stroke-width:0.05;stroke-dasharray:none"
       d="M -5.8469834,4.0533349 H -4.192703"
       id="path10" /><path
       style="opacity:1;fill:none;stroke:#000000;stroke-width:0.05;stroke-dasharray:none"
       d="M -4.522646,2.038462 -5.0333,2.035082 -5.0299,1.1219931 Z"
       id="path11" /><path
       style="opacity:1;fill:none;stroke:#000000;stroke-width:0.05;stroke-dasharray:none"
       d="m -5.0084635,1.053335 2.4999999,4.9999999 2.00000016,-4 -2.00000016,-1.49999993 z"
       id="path12" /><path
       style="opacity:1;fill:none;stroke:#000000;stroke-width:0.05;stroke-dasharray:none"
       d="M -2.5084636,0.55333497 V 6.0533349"
       id="path13" /><path
       style="opacity:1;fill:none;stroke:#000000;stroke-width:0.05;stroke-dasharray:none"
       d="M -3.5084635,0.73298512 V 1.053335 h 0.4999999 V 0.63533497"
       id="path14" /><path
       style="opacity:1;fill:none;stroke:#000000;stroke-width:0.05;stroke-dasharray:none"
       d="m -3.5084635,1.5533349 -0.5,0.5 0.4561164,0.5 0.5438835,-0.5 z"
       id="path15" /><path
       style="opacity:1;fill:none;stroke:#000000;stroke-width:0.05;stroke-dasharray:none"
       d="m -2.5225741,3.0705697 -0.5097375,-0.010297 -0.00515,0.4736954 0.5200365,0.015446"
       id="path16" /><path
       style="opacity:1;fill:none;stroke:#000000;stroke-width:0.05;stroke-dasharray:none"
       d="m -3.5317516,4.0334074 0.523288,0.00515 v 0.5147785 l -0.2401004,1.082e-4"
       id="path17" /><path
       style="opacity:1;fill:none;stroke:#000000;stroke-width:0.05;stroke-dasharray:none"
       d="m -2.5174251,1.041917 0.5089615,0.011418 v 0.4999999 h -0.5"
       id="path18" /><path
       style="opacity:1;fill:none;stroke:#000000;stroke-width:0.05;stroke-dasharray:none"
       d="m -1.5084636,2.5533349 v -0.5 h -0.5 v 0.5 z"
       id="path19" /><path
       style="opacity:1;fill:none;stroke:#000000;stroke-width:0.05;stroke-dasharray:none"
       d="m -1.564885,4.0540028 -0.4435786,-6.679e-4 v 0.5 h 0.2118806"
       id="path20" /><path
       style="opacity:1;fill:none;stroke:#000000;stroke-width:0.05;stroke-dasharray:none"
       d="m -6.5084635,7.5533349 v -1 l 0.5,-1.5 h 2 l 0.5,1.5 v 1 l -1,-0.5 h -1 z"
       id="path22" /><path
       style="opacity:1;fill:none;stroke:#000000;stroke-width:0.05;stroke-dasharray:none"
       d="m -6.5084636,7.5533349 0.5073949,1 -0.00739,0.5 0.5,0.5 h 1 l 0.5,-0.5 v -0.5 l 0.5,-1"
       id="path23" /><path
       style="opacity:1;fill:none;stroke:#000000;stroke-width:0.05;stroke-dasharray:none"
       d="m -6.0010687,8.6036219 -0.0074,-1.300287 0.5000003,-0.25 v 2.5"
       id="path24" /><path
       style="opacity:1;fill:none;stroke:#000000;stroke-width:0.05;stroke-dasharray:none"
       d="m -4.5084635,9.5533349 5e-7,-2.5"
       id="path25" /><path
       style="opacity:1;fill:none;stroke:#000000;stroke-width:0.05;stroke-dasharray:none"
       d="m -4.0084635,7.3033349 v 1.25"
       id="path26" /><path
       style="fill:none;stroke:#000000;stroke-width:0.05"
       d="m -9.0084635,8.5533349 h 0.5 l 2,-0.5 h 0.2536973"
       id="path5" /><path
       style="fill:none;stroke:#000000;stroke-width:0.05"
       d="m -9.0084635,10.053336 h 0.5 V 9.5533349 l 2,-1 0.5,0.5"
       id="path21" /><path
       style="fill:none;stroke:#000000;stroke-width:0.05"
       d="m -9.5084635,8.5533349 -0.4999995,0.5 v 1.0000011 l 0.4999995,0.499999"
       id="path33" /><path
       style="fill:none;stroke:#000000;stroke-width:0.05"
       d="m -10.008463,9.5533349 0.4999995,-0.5 0.5,0.5 -0.5,0.5000011 h -0.4999995"
       id="path34" /><path
       style="fill:none;stroke:#000000;stroke-width:0.05"
       d="m -5.5084635,8.0533349 h 1"
       id="path35" /><path
       style="fill:none;stroke:#000000;stroke-width:0.05"
       d="m -5.1334636,7.8033349 h 0.2500001"
       id="path36" /><path
       style="fill:none;stroke:#000000;stroke-width:0.05"
       d="m -4.0084635,9.0533349 0.5,-0.5 0.4999999,-1 -0.4999999,-1"
       id="path37" /><path
       style="fill:none;stroke:#000000;stroke-width:0.05"
       d="m -5.5084635,9.5533349 -1.5,0.5000011 -0.5,0.999999 0.5,1.5 1.5,1 h 1 l 1.4999999,-1 0.5,-1.5 -0.5,-0.999999 -1.4999999,-0.5000011"
       id="path38" /><path
       style="fill:none;stroke:#000000;stroke-width:0.05"
       d="m -8.5084635,10.553335 2,0.5 h -1.5"
       id="path40" /><path
       style="fill:none;stroke:#000000;stroke-width:0.05"
       d="m -1.5024001,10.577588 -1.9999999,0.5 h 1.4999999"
       id="path40-2" /><path
       style="fill:none;stroke:#000000;stroke-width:0.05"
       d="m -6.5084635,11.553335 -2,0.5"
       id="path41" /><path
       style="fill:none;stroke:#000000;stroke-width:0.05"
       d="m -3.5084635,11.553335 1.9999999,0.5"
       id="path41-7" /><path
       style="fill:none;stroke:#000000;stroke-width:0.05"
       d="m -3.0084636,12.053335 -1.4999999,-1 h -1 l -1.5,1"
       id="path43" /><path
       style="fill:none;stroke:#000000;stroke-width:0.05"
       d="m -6.0386207,11.406773 0.030157,-0.853438 0.5,-0.499999 h 1 l 0.5,0.564081 0.0089,0.775185"
       id="path44" /><path
       style="fill:none;stroke:#000000;stroke-width:0.05"
       d="m -5.0084635,10.053336 v 0.999999"
       id="path46" /><path
       style="fill:none;stroke:#000000;stroke-width:0.05"
       d="m -5.5084635,10.053336 v 0.999999"
       id="path45" /><path
       style="fill:none;stroke:#000000;stroke-width:0.05"
       d="m -4.5084635,10.053336 v 0.999999"
       id="path47" /><path
       style="fill:#000000;stroke:#000000;stroke-width:0.05"
       d="m -4.5084635,12.053335 h -1 l 0.5,-0.5 z"
       id="path48" /><path
       style="fill:#000000;stroke:#000000;stroke-width:0.05"
       d="m -7.0084635,12.553335 1.5,-0.5"
       id="path49" /><path
       style="fill:#000000;stroke:#000000;stroke-width:0.05"
       d="m -3.0084636,12.553335 -1.4999999,-0.5"
       id="path50" /><path
       style="fill:none;stroke:#000000;stroke-width:0.05"
       d="m -4.015786,12.208162 0.00732,0.345173 -0.5,0.5 -0.5,-0.5 -0.5,0.5 -0.5,-0.490547 v -0.345173"
       id="path51-6" /><path
       style="fill:none;stroke:#000000;stroke-width:0.05"
       d="m -5.0084635,12.553335 v -0.5"
       id="path51" /><path
       style="fill:none;stroke:#000000;stroke-width:0.05"
       d="m -5.5084635,12.053335 v 0.5"
       id="path52" /><path
       style="fill:none;stroke:#000000;stroke-width:0.05"
       d="m -4.5084635,12.053335 v 0.5"
       id="path52-6" /><path
       style="fill:none;stroke:#000000;stroke-width:0.05"
       d="m -5.5084635,13.553335 -0.5,1 h -2 l -0.5,-2 1.354,-0.5 0.146,0.5 -1,0.5 0.5,1 h 1 l 0.5,-0.8355"
       id="path53" /><path
       style="fill:none;stroke:#000000;stroke-width:0.05"
       d="m -4.5084635,13.553335 0.5,1 h 1.9999999 l 0.5,-2 -1.3566389,-0.467263 -0.1433611,0.467263 1,0.5 -0.5,1 h -0.9999999 l -0.502639,-0.802763"
       id="path53-9" /></g></svg>
